<svg xmlns="http://www.w3.org/2000/svg" width="232" height="24" fill="none"><clipPath id="a"><path d="M0 0h232v24H0z"/></clipPath><g clip-path="url(#a)"><path fill="#fff" fill-rule="evenodd" d="M29.928.878c-1.218.585-2.146 1.405-2.784 2.341-.638.995-.986 2.049-.986 3.278 0 1.522.348 2.751 1.044 3.63.696.936 1.508 1.58 2.494 1.99.928.41 2.204.878 3.828 1.346 1.16.293 2.088.585 2.726.878.638.293 1.218.644 1.624 1.054.406.468.638.995.638 1.756 0 .995-.406 1.814-1.276 2.458-.812.703-1.972.995-3.422.995-2.32 0-4.234-.878-5.858-2.575l-2.436 2.458c.812.937 1.914 1.756 3.364 2.459 1.45.702 3.074 1.054 4.988 1.054 1.682 0 3.132-.293 4.408-.937s2.262-1.463 2.9-2.517c.696-1.054 1.044-2.166 1.044-3.395 0-1.522-.348-2.751-1.044-3.63-.696-.936-1.508-1.58-2.494-1.99s-2.204-.878-3.828-1.346c-1.16-.293-2.088-.585-2.726-.878-.638-.293-1.218-.644-1.624-1.054-.406-.468-.638-.995-.638-1.756 0-.878.406-1.639 1.16-2.224.754-.586 1.856-.937 3.19-.937a6.04 6.04 0 0 1 2.726.644c.812.41 1.566.878 2.146 1.463l2.494-2.4c-.754-.819-1.798-1.521-3.074-2.107C37.236.351 35.786.058 34.22.058c-1.682-.058-3.074.234-4.292.82zm116.174 2.575c1.044.176 1.972.527 2.9 1.054 1.334.76 2.378 1.815 3.132 3.16s1.16 2.81 1.16 4.391-.406 3.044-1.16 4.39a8.165 8.165 0 0 1-3.132 3.161c-1.334.761-2.784 1.171-4.35 1.171s-3.016-.41-4.35-1.17c-.174-.118-.348-.176-.464-.293l-1.276 3.22c1.856.994 3.886 1.521 6.148 1.521 2.32 0 4.408-.527 6.264-1.58 1.914-1.054 3.364-2.517 4.466-4.332 1.102-1.815 1.624-3.864 1.624-6.03 0-2.224-.522-4.214-1.624-6.029s-2.552-3.278-4.466-4.331c-1.102-.644-2.262-1.054-3.538-1.347zm-48.14 0c1.044.176 1.972.527 2.9 1.054 1.334.76 2.378 1.815 3.132 3.16s1.16 2.81 1.16 4.391-.406 3.044-1.16 4.39a8.165 8.165 0 0 1-3.132 3.161c-1.334.761-2.784 1.171-4.35 1.171s-3.016-.41-4.35-1.17c-.174-.118-.348-.176-.464-.293l-1.276 3.22c1.856.994 3.886 1.521 6.148 1.521 2.32 0 4.408-.527 6.264-1.58 1.914-1.054 3.364-2.517 4.466-4.332 1.102-1.815 1.624-3.864 1.624-6.03 0-2.224-.522-4.214-1.624-6.029s-2.552-3.278-4.466-4.331c-1.102-.644-2.262-1.054-3.538-1.347zM213.788.351v23.356h3.654v-8.722h5.51l4.814 8.663h4.176l-5.278-9.248c1.334-.586 2.436-1.464 3.248-2.693s1.218-2.576 1.218-4.04a7.36 7.36 0 0 0-.986-3.745c-.638-1.113-1.566-1.99-2.726-2.635-1.16-.644-2.494-.995-3.944-.995zm3.712 3.336h6.032c1.16 0 2.146.352 2.9 1.113.754.76 1.102 1.697 1.102 2.868s-.348 2.107-1.102 2.868-1.682 1.112-2.9 1.112H217.5zM191.516.351v23.356h16.878V20.37h-13.166V13.23h10.208V9.892h-10.208V3.687h12.876V.351zm-8.99 0-8.816 11.297h-.058L164.836.351h-3.364v23.356h3.654V6.614h.116l8.352 10.712 8.352-10.712h.116v17.093h3.654V.35zm-52.664 0v17.034h-.116L116.986.351h-3.306v23.356h3.654V6.614h.116l12.76 17.034h3.364V.351zm-61.248 0v23.356h3.654v-8.722h5.51l4.814 8.663h4.176L81.49 14.4c1.334-.586 2.436-1.464 3.248-2.693s1.218-2.576 1.218-4.04a7.36 7.36 0 0 0-.986-3.745c-.638-1.113-1.566-1.99-2.726-2.635C81.084.643 79.75.292 78.3.292zm3.654 3.336H78.3c1.16 0 2.146.352 2.9 1.113.754.76 1.102 1.697 1.102 2.868s-.348 2.107-1.102 2.868-1.682 1.112-2.9 1.112h-6.032zM45.704.351v3.336h7.018v20.02h3.654V3.687h7.018V.351zM9.338.35 0 23.648h3.77l2.32-5.97h10.324l2.378 5.97h3.886L16.646 8.604h-3.77l2.204 5.737H7.424L12.876.351z" clip-rule="evenodd"/></g></svg>