<svg fill="none" height="24" viewBox="0 0 232 24" width="232" xmlns="http://www.w3.org/2000/svg" xmlns:xlink="http://www.w3.org/1999/xlink"><clipPath id="a"><path d="m0 0h232v24h-232z"/></clipPath><g clip-path="url(#a)"><path clip-rule="evenodd" d="m29.928.877645c-1.218.585365-2.146 1.404875-2.784 2.341465-.638.99512-.986 2.04878-.986 3.27805 0 1.52195.348 2.75121 1.044 3.62924.696.9366 1.508 1.5805 2.494 1.9903.928.4097 2.204.878 3.828 1.3463 1.16.2927 2.088.5854 2.726.8781.638.2926 1.218.6439 1.624 1.0536.406.4683.638.9951.638 1.7561 0 .9951-.406 1.8147-1.276 2.4586-.812.7024-1.972.9951-3.422.9951-2.32 0-4.234-.8781-5.858-2.5756l-2.436 2.4585c.812.9366 1.914 1.7561 3.364 2.4585 1.45.7025 3.074 1.0537 4.988 1.0537 1.682 0 3.132-.2927 4.408-.9366s2.262-1.4634 2.9-2.5171c.696-1.0536 1.044-2.1658 1.044-3.3951 0-1.5219-.348-2.7512-1.044-3.6293-.696-.9365-1.508-1.5804-2.494-1.9902s-2.204-.878-3.828-1.3463c-1.16-.29272-2.088-.5854-2.726-.87809-.638-.29268-1.218-.6439-1.624-1.05366-.406-.46829-.638-.99512-.638-1.75609 0-.87805.406-1.63903 1.16-2.22439.754-.58537 1.856-.93659 3.19-.93659.986 0 1.914.23415 2.726.6439.812.40976 1.566.87805 2.146 1.46342l2.494-2.4c-.754-.81951-1.798-1.52195-3.074-2.107319-1.276-.585366-2.726-.8780484-4.292-.8780484-1.682-.05853663-3.074.2341464-4.292.8195124zm116.174 2.575605c1.044.17561 1.972.52683 2.9 1.05366 1.334.76098 2.378 1.81464 3.132 3.16098s1.16 2.80971 1.16 4.39021-.406 3.0439-1.16 4.3903c-.754 1.3463-1.798 2.4-3.132 3.161-1.334.7609-2.784 1.1707-4.35 1.1707s-3.016-.4098-4.35-1.1707c-.174-.1171-.348-.1757-.464-.2927l-1.276 3.2195c1.856.9951 3.886 1.5219 6.148 1.5219 2.32 0 4.408-.5268 6.264-1.5805 1.914-1.0536 3.364-2.517 4.466-4.3317 1.102-1.8146 1.624-3.8634 1.624-6.0292 0-2.22442-.522-4.21467-1.624-6.0293s-2.552-3.27805-4.466-4.33171c-1.102-.6439-2.262-1.053655-3.538-1.346338zm-48.14 0c1.044.17561 1.972.52683 2.9 1.05366 1.334.76098 2.378 1.81464 3.132 3.16098s1.16 2.80971 1.16 4.39021-.406 3.0439-1.16 4.3903c-.754 1.3463-1.798 2.4-3.132 3.161-1.334.7609-2.784 1.1707-4.35 1.1707s-3.016-.4098-4.35-1.1707c-.174-.1171-.348-.1757-.464-.2927l-1.276 3.2195c1.856.9951 3.886 1.5219 6.148 1.5219 2.32 0 4.408-.5268 6.264-1.5805 1.914-1.0536 3.364-2.517 4.466-4.3317 1.102-1.8146 1.624-3.8634 1.624-6.0292 0-2.22442-.522-4.21467-1.624-6.0293s-2.552-3.27805-4.466-4.33171c-1.102-.6439-2.262-1.053655-3.538-1.346338zm115.826-3.102434v23.356084h3.654v-8.7219h5.51l4.814 8.6634h4.176l-5.278-9.2488c1.334-.5854 2.436-1.4634 3.248-2.6927s1.218-2.5756 1.218-4.03901c0-1.40488-.348-2.63415-.986-3.74634-.638-1.1122-1.566-1.99025-2.726-2.63415-1.16-.643902-2.494-.995121-3.944-.995121zm3.712 3.336584h6.032c1.16 0 2.146.35122 2.9 1.1122.754.76097 1.102 1.69756 1.102 2.86829s-.348 2.10731-1.102 2.86831-1.682 1.1122-2.9 1.1122h-6.032zm-25.984-3.336584v23.356084h16.878v-3.3366h-13.166v-7.1414h10.208v-3.33662h-10.208v-6.20488h12.876v-3.336584zm-8.99 0-8.816 11.297584h-.058l-8.816-11.297584h-3.364v23.356084h3.654v-17.09267h.116l8.352 10.71217 8.352-10.71217h.116v17.09267h3.654v-23.356084zm-52.664 0v17.034184h-.116l-12.76-17.034184h-3.306v23.356084h3.654v-17.09267h.116l12.76 17.03417h3.364v-23.297584zm-61.248 0v23.356084h3.654v-8.7219h5.51l4.814 8.6634h4.176l-5.278-9.2488c1.334-.5854 2.436-1.4634 3.248-2.6927s1.218-2.5756 1.218-4.03901c0-1.40488-.348-2.63415-.986-3.74634-.638-1.1122-1.566-1.99025-2.726-2.63415-1.16-.643902-2.494-.995121-3.944-.995121zm3.654 3.336584h6.032c1.16 0 2.146.35122 2.9 1.1122.754.76097 1.102 1.69756 1.102 2.86829s-.348 2.10731-1.102 2.86831-1.682 1.1122-2.9 1.1122h-6.032zm-26.564-3.336584v3.336584h7.018v20.0195h3.654v-20.0195h7.018v-3.336584zm-36.366 0-9.338 23.297584h3.77l2.32-5.9708h10.324l2.378 5.9708h3.886l-6.032-15.04393h-3.77l2.204 5.73663h-7.656l5.452-13.990284z" fill="#fff" fill-rule="evenodd"/></g></svg>