<svg xmlns="http://www.w3.org/2000/svg" width="156" height="38" fill="none"><clipPath id="a"><path d="M0 0h156v38H0z"/></clipPath><g fill="#c2b8ed" clip-path="url(#a)"><path d="M149.34 30.873h.397c0 .82.327 1.556.859 2.09s1.262.866 2.077.866 1.546-.33 2.078-.865c.531-.535.859-1.27.859-2.09h.39c0 1.856-1.489 3.354-3.327 3.354s-3.326-1.498-3.333-3.355zm6.27 0c0-.814-.328-1.555-.859-2.084a2.929 2.929 0 0 0-2.078-.87v-.394c1.838 0 3.327 1.499 3.327 3.348zm-6.27 0c.007-1.85 1.498-3.348 3.333-3.348v.393c-.815 0-1.545.336-2.077.871a2.933 2.933 0 0 0-.859 2.084zM50.42 10.43h5.845v22.436H50.42zM135.936 23.3v9.48l-5.879-.022V9.737l10.59 9.173v-8.48h5.832v23.266l-10.54-10.393M21.024 21.586c0-6.366 5.136-11.536 11.463-11.536 2.851 0 5.46 1.058 7.468 2.79l-3.786 4.328a5.668 5.668 0 0 0-3.682-1.35c-3.163 0-5.732 2.585-5.732 5.768s2.569 5.768 5.732 5.768a5.7 5.7 0 0 0 3.739-1.4l3.78 4.333a11.346 11.346 0 0 1-7.52 2.826c-6.325 0-11.462-5.16-11.462-11.53"/><path d="M67.394 38 56.334 8.432H47.09v24.522h-6.049V8.432H27.649l3.107-5.889h29.896l6.738 17.72 6.745-17.72h28.946l3.191 5.889H78.453L67.387 38"/><path d="M86.076 32.78v-4.954h4.016c.651 0 1.895-.05 2.206-1.093.645-2.17-5.964-5.688-5.964-11.086 0-4.083 2.937-5.305 4.929-5.305h6.087v4.868h-3.758s-1.08 0-1.376.434c-1.63 2.347 6.043 5.784 6.043 12.093 0 3.298-2.807 5.04-5.611 5.04h-6.569M78.544 10.345h5.851V32.78h-5.85zM99.207 10.345h5.851V32.78h-5.851zM153.539 32.587c-.101-.235-.085-.593-.129-.894-.057-.392-.205-.563-.617-.563h-.815v1.457h-.809v-3.725h1.992c.667 0 1.086.462 1.086 1.03 0 .443-.176.769-.589.934v.016c.403.1.52.494.539.87.022.235.015.672.157.878h-.815m-1.561-2.034h.894c.361 0 .56-.158.56-.535 0-.358-.199-.513-.56-.513h-.894zM16.583 32.865l-1.555-4.174H7.771l-1.555 4.174H0L11.406 0l11.406 32.865zM9.546 22.692h3.456l-1.731-5.74zM106.121 21.58c0-6.376 5.143-11.552 11.485-11.552s11.478 5.176 11.478 11.552-5.143 11.558-11.478 11.558c-6.336 0-11.485-5.176-11.485-11.558zm5.782 0c0 3.17 2.552 5.74 5.703 5.74 3.15 0 5.697-2.57 5.697-5.74 0-3.17-2.553-5.733-5.697-5.733s-5.703 2.569-5.703 5.733z"/></g></svg>