<svg xmlns="http://www.w3.org/2000/svg" width="132" height="34" fill="none"><clipPath id="a"><path d="M0 0h132v34H0z"/></clipPath><g fill="#c7beed" clip-path="url(#a)"><path d="M14.542 0H0v34zM24.775 0h14.522v34zM19.658 12.532 28.916 34h-6.071l-2.768-6.835h-6.776zM63.023 21.621l1.714 4.806c.06.119.141.176.294.176h3.296c.18 0 .208-.084.18-.26L61.696 7.85c-.027-.15-.059-.176-.207-.176h-4.095c-.114 0-.18.084-.18.203-.059.972-.141 1.27-.266 1.557l-6.072 16.883c-.027.203.04.287.208.287h2.947c.18 0 .267-.057.333-.233l1.62-4.753h7.039zm-6.103-3.138c.893-2.629 2.067-6 2.54-7.929h.028c.587 2.02 1.97 6.02 2.595 7.93zM77.268 26.89c1.773 0 3.656-.314 5.57-1.121.153-.057.18-.119.18-.26a18.32 18.32 0 0 1-.121-1.845V6.257c0-.111 0-.169-.141-.169h-3.21c-.121 0-.18.058-.18.203v5.9a10.422 10.422 0 0 0-1.268-.083c-5.183 0-8.366 3.344-8.366 7.52 0 4.844 3.269 7.262 7.544 7.262zm2.094-3.222c-.532.168-1.12.233-1.714.233-2.35 0-4.275-1.297-4.275-4.446 0-2.79 1.98-4.435 4.603-4.435.533 0 .995.057 1.382.203v8.445zM93.266 12.111c-4.423 0-7.163 3.314-7.163 7.409 0 3.658 2.18 7.374 7.097 7.374 4.16 0 7.077-2.993 7.077-7.466 0-3.945-2.474-7.317-7.01-7.317zm-.18 2.909c2.502 0 3.562 2.1 3.562 4.5 0 2.962-1.561 4.435-3.382 4.435-2.247 0-3.57-1.845-3.57-4.5s1.413-4.435 3.39-4.435zM103.596 6.088c-.121 0-.207.058-.207.203V26c0 .084.086.233.207.26a15.28 15.28 0 0 0 4.416.631c4.368 0 8.612-2.648 8.612-7.982 0-3.861-2.709-6.796-6.956-6.796-.975 0-1.887.149-2.682.405l-.039-6.195c0-.203-.059-.234-.266-.234h-3.089zm9.399 13.172c0 3.195-2.235 4.695-4.65 4.695-.501 0-.948-.027-1.355-.15v-8.41c.466-.176 1.022-.325 2.055-.325 2.329 0 3.95 1.446 3.95 4.186zM128.61 20.297c1.44 0 2.623-.027 3.03-.119.152-.027.207-.084.239-.203.086-.314.121-.972.121-1.78 0-2.74-1.687-6.084-6.044-6.084s-6.925 3.548-6.925 7.55c0 3.548 1.914 7.233 7.277 7.233 2.008 0 3.308-.314 4.424-.834.113-.058.172-.15.172-.314v-2.4c0-.137-.086-.168-.172-.11-1.12.463-2.329.696-3.656.696-3.003 0-4.369-1.623-4.455-3.632h5.989zm-5.989-2.484c.239-1.408 1.147-2.935 3.182-2.935 2.247 0 2.834 1.845 2.834 2.675v.233c-.121.027-.501.027-1.62.027z"/></g></svg>