<svg xmlns="http://www.w3.org/2000/svg" width="200" height="20" fill="none"><path fill="#C7BEED" d="M108.953 0c-7.093 0-10.767 4.25-10.767 9.972 0 5.745 3.674 10.017 10.767 10.017 7.116 0 10.79-4.272 10.79-10.017.011-5.723-3.674-9.972-10.79-9.972zm61.488 0c-6 0-9.011 2.323-9.011 6.437 0 3.342 2 4.917 6.139 5.347l4.604.477c1.756.192 2.559.85 2.559 1.71 0 .975-1.174 1.848-4 1.848-3.267 0-4.582-.805-4.803-2.426h-4.778c.221 4.374 3.139 6.607 9.406 6.607 5.721 0 8.918-2.448 8.918-6.131 0-3.207-1.894-5.133-5.475-5.53l-4.535-.498c-2.652-.283-3.314-.93-3.314-1.802 0-.974 1.36-1.846 4.023-1.846 2.558 0 3.895.93 4.139 2.323h4.873C178.941 2.493 175.487 0 170.441 0zM59.163.453V12.76c0 5.483 5.022 7.195 9.231 7.195 4.187 0 9.186-1.712 9.186-7.195V.452h-4.976v11.751h.023c0 2.47-1.557 3.467-4.22 3.467-2.581 0-4.267-1.042-4.267-3.467V.454zM17.407.521 0 11.058v8.465h.15L17.604 8.94h9.058c.279 0 .535.215.535.522 0 .249-.116.351-.255.43l-8.57 5.008c-.56.329-.756.974-.756 1.462l-.013 3.161h10.896V1.179c0-.351-.28-.658-.698-.658zm27.221 0L37.15 19.524h5.14l1.303-3.559h8.348l1.28 3.56h5.313L50.964.52zm35.232 0v4.113h6.29v14.89h4.966V4.634h6.267V.521zm42.592 0v19.003h9.117c6.989 0 8.918-2.539 8.918-9.643 0-6.674-1.848-9.36-8.918-9.36zm20.815 0v19.003h15.698V15.41h-10.721v-3.444h8.627V7.84h-8.627V4.634h10.721V.521zm38.743 0 .024 19.003h4.954v-7.218l6.721 7.218H200l-9.071-9.382L200 .522h-5.919l-7.093 7.716V.52zm-73.057 3.751c3.709 0 5.698 2.21 5.698 5.7.011 3.569-1.989 5.745-5.698 5.745-3.675 0-5.697-2.188-5.697-5.745 0-3.49 2.022-5.7 5.697-5.7zm-61.151.205 2.685 7.443H45.07zm79.616.157h3.953c3.117 0 4.046.827 4.046 5.247 0 4.034-1.046 5.529-4.046 5.529h-3.953z"/></svg>