<svg xmlns="http://www.w3.org/2000/svg" width="196" height="28" fill="none"><clipPath id="a"><path d="M0 0h196v28H0z"/></clipPath><g fill="#c7beed" clip-path="url(#a)"><path d="M14.506 25.926a6.212 6.212 0 0 1-4.116 1.685c-4.901 0-6.045-4.213-6.045-9.82s1.046-9.819 5.947-9.819a5.965 5.965 0 0 1 4.018 1.686l2.68 4.666h.163V7.843h-.163l-2.549 1.36c-1.11-.971-2.548-1.587-4.117-1.62C5.587 7.584 0 11.31 0 17.793S5.489 28 10.39 28c1.633-.065 3.104-.648 4.247-1.62l2.646 1.329h.164v-6.741h-.164zM30.45 7.55c-5.554.195-9.997 4.667-10.062 10.21.065 5.54 4.508 10.013 10.063 10.207 5.586-.194 10.03-4.666 10.095-10.208-.098-5.542-4.541-10.014-10.095-10.208zm0 20.029c-4.704 0-5.75-3.922-5.75-9.82s1.078-9.82 5.75-9.82c4.673 0 5.75 3.922 5.75 9.82.033 5.866-1.012 9.82-5.75 9.82zM56.653 8.231h2.516v12.542h-.065L50.282 7.94h-7.58v.324h2.483v19.023h-2.483v.324h5.391v-.324h-2.45V8.23h.065l13.755 19.736h.098V8.231h2.516v-.324h-5.424zM72.793 7.94h-8.527v.324h2.483v19.023h-2.483v.324h8.527c4.248 0 11.501-1.88 11.501-9.949 0-8.07-7.253-9.722-11.5-9.722zm-.098 19.347h-2.058V8.232h2.058c5.032 0 7.32 3.5 7.32 9.527s-2.288 9.528-7.32 9.528zM100.107 27.287h-7.253V17.208h3.66c1.208.973 2.613 3.825 2.613 3.825h.164V13.06h-.164s-1.405 2.82-2.613 3.824h-3.66V8.232h6.502c1.895 1.264 3.529 4.99 3.529 4.99h.163V7.94H86.483v.324h2.483v19.023h-2.483v.324h17.12v-6.61h-.163s-1.634 4.406-3.333 6.286zM99.78 3.76l-.49-1.362.425-2.3L99.617 0 93.54 5.153l.066.097zM139.085 7.907h-5.423v.324h2.515v12.542h-.065L127.291 7.94h-7.58v.324h2.483v19.023h-2.483v.324h5.391v-.324h-2.483V8.23h.065l13.787 19.736h.098V8.231h2.516zM149.442 7.26h-.13l-8.299 20.027h-2.287v.324h5.162v-.324h-2.483l3.104-7.519h6.24l3.267 7.52h-2.483v.323h9.018v-.324h-2.287zm-4.803 12.217 2.908-7.065 3.071 7.065zM171.725 16.042l-3.79-1.33c-1.895-.647-3.431-1.587-3.431-3.467 0-2.17 1.634-3.338 4.182-3.338h.262c1.274 0 2.417.519 3.234 1.33l2.712 4.568h.131v-6.19h-.131l-2.581 1.297a5.19 5.19 0 0 0-3.463-1.296h-.164c-3.626 0-6.044 2.43-6.077 5.865 0 2.82 1.928 4.213 4.084 5.024l3.855 1.393c2.026.745 3.431 1.653 3.431 3.727s-1.274 3.921-4.607 3.954a6.702 6.702 0 0 1-4.41-1.75l-2.941-5.024h-.131l.131 6.838h.131l2.646-1.393a7.664 7.664 0 0 0 4.542 1.718c4.214 0 6.959-3.047 6.959-6.352 0-3.306-2.189-4.764-4.574-5.574zM178.194 7.94v6.092h.13s1.797-3.92 3.496-5.8h3.333v19.055h-3.006v.324h9.9v-.324h-3.006V8.232h3.332c1.667 1.88 3.496 5.8 3.496 5.8H196V7.94z"/></g></svg>