<svg xmlns="http://www.w3.org/2000/svg" width="99" height="56" fill="none"><clipPath id="a"><path d="M0 0h99v56H0z"/></clipPath><g clip-path="url(#a)"><path fill="#c7beed" fill-rule="evenodd" d="M99 27.028h-.563v-2.077l-.764 2.077h-.332l-.764-2.077v2.077h-.564v-2.566h.916l.582 1.518.573-1.518H99v2.566zm-3.298-2.076h-.785v2.077h-.623v-2.077h-.784v-.49h2.193v.49zM39.58 1.804l-.483.17c-1.005 2.755-3.48 3.854-5.632 4.194-5.662.888-20.91-.81-26.753 2.776-3.47 2.127-6.024 6.471.21 12.083l.685-.14c-3.822-5.572 4.555-9.637 14.653-8.758-3.178 1.388-5.743 5.542-6.507 8.068-.563 1.858-4.596 15.37-5.139 17.176-1.68 5.633-3.298 6.031-5.08 5.573-1.437-.37-2.926-3.016-.774-5.194l-.07-.339c-1.49.46-2.877 2.746-2.887 4.783-.02 2.007 1.237 3.925 4.768 4.235 1.76.16 7.13-.92 9.233-6.751 2.293-6.38 5.662-19.822 6.245-21.769.775-2.556 1.53-4.194 3.41-5.762 2.223.04 10.118-1.418 12.511-4.563 1.63-2.128 1.62-4.225 1.61-5.783zM28.889 21.716c-1.126.589-2.062-.07-2.081-1.478-.02-1.418.874-3.046 2-3.635 1.127-.6 2.063.06 2.082 1.478.022 1.408-.874 3.035-2 3.635zm3.3 29.897c3.298-1.168 4.022-8.298 4.756-10.305l4.607-3.655-3.49 11.114c-1.76 4.534-4.324 5.572-6.115 5.503-2.555-.21-4.345-2.377-3.61-5.683 1.025-4.694 7.442-9.416 9.071-10.404l.11-.25c-2.856.35-3.59-1.428-3.972-2.397-2.303 2.477-3.339 3.674-4.406 4.494-4.445 3.235-8.136.04-6.446-4.964l3.339-11.333 4.396-.968s-4.054 12.982-4.023 14.22c.02 1.259 1.348 1.437 2.021 1.038 0 0 2.464-1.209 4.607-4.075l3.037-2.096c-.04 2.826 2.826 2.496 3.58.31l2.183-6.622c.895-3.005-1.518-3.305-2.413-2.437-1.459 1.348-2.877 4.475-3.35 8.748l-3.037 2.097c-.824-7.489 3.822-12.522 3.822-12.522 3.067-3.225 5.421-2.966 6.648-1.957l.21-.68 4.044-.768-4.848 15.278 7.07-5.463c-.1-.7-.14-1.229.12-2.886 1.128-7.47 5.13-9.956 7.635-10.106 3.027-.17 4.244 2.217 3.128 5.552-1.287 3.875-4.738 5.673-7.352 6.99l-.091-1.427c4.717-2.017 5.24-6.69 5.24-6.69.513-3.105-1.559-3.236-2.896-1.978-1.217 1.128-3.27 4.524-2.344 8.667l.091 1.428c.2 1.009.694 2.398 2.343 2.477 2.806.14 5.24-2.246 5.24-2.246 1.922-1.538 4.516-7.41 5.19-11.384a2.11 2.11 0 0 1-.432-.739c-.242-.599-.121-1.528.432-2.237.433-.549 1.358-.949 2.343-.549.755.31.795.919.826 1.288.05.55 3.621.06 4.687-.769.312-.24.674-.31.826.07.18.48.945 1.508 1.457 1.628.323.07.292.519.05.81-.25.3-3.388 6.11-3.83 7.479-.433 1.298-.705 2.976.541 3.445.846.31 2.888-.11 4.255-2.357 1.821-2.996 4.254-15.298 8.187-17.106l1.65 1.518c-.544.4-1.037.96-1.308 1.458-.18.409-.25.469.02.81 1.176 1.867 4.043 7.07 3.4 9.975 1.086-.569 2.011-1.548 2.554-2.286l.493.829c-.805 1.937-2.062 3.145-3.339 4.064-.865 2.267-1.428 4.034-4.365 3.804-2.967-.43-2.806-3.705.553-4.403.191-1.359.804-5.043-1.79-8.998-.685 1.628-3.913 9.137-5.593 11.803-1.176 1.868-3.067 3.315-4.324 3.706-1.65.508-3.963.12-4.898-1.928-1.307-2.886 2.102-9.137 3.22-10.924-1.218.588-2.485.479-3.048.249-1.872 5.772-6.82 16.117-13.77 15.867-2.111.06-3.85-.998-4.806-3.485-4.375 3.326-6.105 5.502-8.72 8.399l-4.607 3.654c-2.022 1.538-2.947 2.077-4.546 4.185-2.837 3.743-2.506 6.918-.213 6.12zM49.295 8.395h5.038V7.067H51.7V5.619h2.425V4.29h-2.425V3.063h2.505v-1.34h-4.908l.462.71v5.252l-.462.71zm5.673-6.67v1.847l.442-.51h1.075v4.624l-.461.709h2.877l-.473-.71V3.063h1.065l.504.51V1.723H54.97zm17.57 6.67h2.878l-.463-.709V2.434l.463-.71H72.54l.473.71v5.252zm3.319-6.67v1.847l.442-.51h1.077v4.624l-.474.709h2.887l-.474-.71V3.063h1.067l.503.51V1.723h-5.028zM69.5 8.554c1.972 0 2.615-.779 2.615-2.286V3.563c0-1.279-.915-1.998-2.615-1.998l-.01 1.209c.644 0 .684.49.684.899v2.736c0 .38-.04.948-.674.948-.635 0-.703-.569-.703-.948V3.673c0-.41.08-.899.694-.899l.01-1.209c-1.699 0-2.645.72-2.645 1.998v2.706c0 1.507.684 2.286 2.645 2.286zm-6.768-.74V2.932c.956-.02 1.357.01 1.357.81 0 .408-.13.818-.694.818h-.664v1.208h.644c.452.02.602.29.664.699.05.41.01.959.039 1.548.01.13.06.26.11.38h2.123v-.09a.601.601 0 0 1-.192-.23c-.11-.43-.121-1.568-.17-2.107-.041-.46-.423-.76-.966-.859v-.02c.814-.3 1.026-.81 1.026-1.518 0-1.329-.795-1.848-2.384-1.848h-3.309l.473.71v5.252l-.473.709h2.817l-.402-.58zm-17.158-.618V2.932l-1.941-.5v5.253l-.472.71h3.087c.593 0 1.217-.041 1.72-.31.564-.28.816-.77.825-1.438V3.68c0-.639-.12-1.288-.865-1.638-.633-.3-1.478-.319-2.192-.319h-2.575l.472.71 1.942.498c.945.01 1.267.06 1.277.84v2.176c.04.888.02 1.318-1.277 1.248z" clip-rule="evenodd"/></g></svg>