<svg xmlns="http://www.w3.org/2000/svg" width="51" height="51" fill="none"><clipPath id="a"><path d="M0 0h51v51H0z"/></clipPath><g clip-path="url(#a)"><path fill="#c2b8ed" fill-rule="evenodd" d="M25.322 51C11.357 51 0 39.563 0 25.5S11.357 0 25.322 0s25.322 11.437 25.322 25.5S39.287 51 25.322 51zm4.285-35.365h-14.31l-2.174 3.512h14.294l2.185-3.512zm2.926.033-8.75 14.03h-9.701l2.24-3.519h5.818l2.223-3.519H10.917L8.693 26.18h3.188l-4.42 7.02h18.446l6.81-10.82 2.485 3.8h-2.24l-2.118 3.519h6.632l2.307 3.507h4.23L32.55 15.668z" clip-rule="evenodd"/></g></svg>