<svg xmlns="http://www.w3.org/2000/svg" width="142" height="29" fill="none"><g fill="#C2B8ED" clip-path="url(#a)"><path d="M80.404 15.177c-.22-.085-.526-.127-.79-.212-.394 0-.788.085-1.095.254-.526.297-.79.764-.921 1.316-.088.381-.044.806.088 1.23.175.509.526.806 1.052.933.438.128.92.128 1.403 0 .614-.127 1.008-.466 1.183-1.018.176-.594.176-1.188-.087-1.782a1.178 1.178 0 0 0-.833-.721ZM120.387 14.668c-.22.042-.439.042-.658.127a2.221 2.221 0 0 0-1.096.764c-.132.17-.219.382-.351.551v.128h.088c.438-.085.877-.17 1.359-.297l1.315-.297c.263-.043.526-.127.833-.17.132-.042.132-.085.044-.17-.482-.34-.965-.636-1.534-.636ZM22.578 15.052c-.526-.085-1.008-.085-1.534.085-.439.127-.702.34-.877.636-.22.34-.263.721-.263 1.146 0 .084 0 .212.044.381.087.68.482 1.146 1.183 1.316.614.17 1.228.17 1.841-.043.439-.17.746-.51.877-.933.132-.467.132-.934.044-1.4-.175-.721-.657-1.103-1.315-1.188ZM37.177 15.052c-.526-.085-1.052-.085-1.622.085a1.47 1.47 0 0 0-1.008 1.06 2.24 2.24 0 0 0 0 1.315c.087.34.219.594.526.806.438.382.964.425 1.534.425h.263c.35-.043.702-.127.965-.34.35-.254.526-.594.613-.975.088-.51.088-.976-.087-1.443-.22-.551-.614-.806-1.184-.933Z"/><path d="M0 .5v28h142V.5H0Zm13.985 16.248c0 .213 0 .255-.263.255h-2.148c-.117 0-.175.057-.175.17v5.982c0 .127-.044.17-.176.17H6.62c-.132 0-.132-.043-.132-.17.044-2.63.044-5.219.044-7.849V7.712c0-.764.395-1.315 1.009-1.74.482-.339 1.008-.424 1.578-.424h6.62c.394 0 .35 0 .35.34v3.564c0 .212 0 .254-.262.254h-3.245c-.219 0-.438 0-.614.085-.394.127-.526.467-.57.848v2.037c0 .127.044.17.176.17h2.148c.176 0 .263.084.263.254v3.649ZM28.41 18.7a5.91 5.91 0 0 1-1.14 2.121 7.78 7.78 0 0 1-1.622 1.527c-.439.297-.877.51-1.36.722-.964.381-1.972.466-2.98.381a5.873 5.873 0 0 1-1.71-.381c-1.315-.51-2.324-1.316-3.2-2.376-.351-.424-.614-.933-.834-1.442a7.808 7.808 0 0 1-.394-1.443c-.044-.467-.088-.976-.044-1.442.044-.68.22-1.316.482-1.952.439-1.06 1.184-1.909 2.017-2.63.482-.382 1.008-.721 1.578-.934 1.096-.466 2.236-.593 3.42-.466.526.042 1.052.17 1.578.34.79.296 1.535.72 2.192 1.272a6.888 6.888 0 0 1 1.535 1.824c.219.382.35.721.482 1.103.175.594.263 1.273.263 2.164 0 .424-.088 1.018-.263 1.612Zm14.686-1.145c-.087.72-.219 1.4-.57 2.036a6.733 6.733 0 0 1-1.84 2.29c-.57.51-1.228.892-1.93 1.189-.657.297-1.49.424-2.323.424a6.882 6.882 0 0 1-1.842-.255 7.075 7.075 0 0 1-1.753-.763 7.761 7.761 0 0 1-2.192-2.079c-.307-.467-.57-.933-.746-1.485a7.245 7.245 0 0 1-.306-2.545 5.64 5.64 0 0 1 .394-1.697c.35-.934.92-1.697 1.622-2.418.57-.552 1.228-1.019 1.973-1.316a8.539 8.539 0 0 1 1.71-.466c.526-.085 1.096-.128 1.622-.043.35 0 .701.085 1.052.17.263.042.57.127.833.212.35.127.702.297 1.008.467.746.382 1.316.933 1.842 1.57.438.508.789 1.06 1.008 1.696a6.48 6.48 0 0 1 .438 3.013Zm10.478 5.472c0 .17 0 .212-.219.212h-4.91a2.79 2.79 0 0 1-1.666-.551 1.912 1.912 0 0 1-.79-1.655c.045-.933.045-1.866.045-2.8v-3.012c0-.17-.044-.212-.22-.212h-1.578c-.117 0-.175-.056-.175-.17v-3.818c0-.127.044-.17.175-.17h1.578c.176 0 .22-.042.22-.212V6.821c0-.113.058-.17.175-.17h4.384c.175 0 .22 0 .22.213v3.775c0 .213.043.213.262.213h1.403c.176 0 .176.042.176.17v3.775c0 .17-.044.212-.176.212h-1.403c-.219 0-.219.043-.219.212v2.758c0 .212 0 .466.132.721.131.255.35.382.613.424h1.754c.146 0 .22.071.22.212v3.691Zm18.545.085c0 .127-.044.17-.175.17h-7.147c-.438 0-.92-.085-1.315-.34-.35-.17-.57-.466-.701-.848-.175-.382-.175-.806-.175-1.23.043-2.461.043-4.922.043-7.382V5.718c0-.141.073-.212.22-.212h4.34c.219 0 .219.042.219.212v12.176c0 .17 0 .34.044.509.044.382.394.679.745.721h3.727c.175 0 .175.043.175.212v3.776Zm14.204-5.048a6.858 6.858 0 0 1-.482 1.612c-.614 1.273-1.622 2.206-2.806 2.97-.526.339-1.14.551-1.753.72-.702.043-1.228.128-1.842.128a6.34 6.34 0 0 1-1.797-.255 6.164 6.164 0 0 1-1.71-.763c-.614-.424-1.184-.891-1.666-1.443a7.86 7.86 0 0 1-.964-1.485c-.439-1.06-.614-2.163-.483-3.266a5.682 5.682 0 0 1 .395-1.655c.35-.89.877-1.697 1.578-2.376.57-.551 1.228-1.018 1.973-1.315.35-.17.745-.254 1.14-.381a8.592 8.592 0 0 1 2.323-.17c.483.042.965.127 1.447.254.483.128.965.34 1.403.594.614.34 1.14.806 1.622 1.316.439.466.79.933 1.052 1.484.22.425.395.891.483 1.4.175.849.175 1.74.087 2.63Zm13.635 2.545c-.614.849-1.315 1.527-2.236 2.079a6.385 6.385 0 0 1-2.192.764c-.395.042-.79.084-1.14.127-.058-.057-.088-.1-.088-.128-.657.043-1.271-.084-1.885-.212a7.075 7.075 0 0 1-1.753-.763 7.579 7.579 0 0 1-2.105-1.952 4.932 4.932 0 0 1-.833-1.654 6.661 6.661 0 0 1-.263-2.63c.088-.891.35-1.74.833-2.546a7.706 7.706 0 0 1 2.06-2.206 5.76 5.76 0 0 1 1.623-.806 7.333 7.333 0 0 1 3.332-.255c.394.043.833.17 1.227.255.57.17 1.096.424 1.578.763a7.817 7.817 0 0 1 1.798 1.782c.044.085.044.127-.044.212-.877.552-1.754 1.061-2.63 1.613-.395.212-.746.466-1.14.72-.117.086-.234.071-.35-.042-.176-.17-.308-.34-.527-.466-.263-.212-.614-.255-.965-.212-.306 0-.613 0-.92.127-.439.17-.746.424-.92.848-.22.51-.22 1.06-.088 1.57.131.51.438.848.964 1.018.57.212 1.096.212 1.666.085.35-.085.614-.297.833-.552 0-.042.044-.042.088-.084.043-.043.087-.043.175 0 1.008.636 2.017 1.272 3.025 1.866l.833.51c.088.042.088.127.044.17Zm14.73 2.673h-5.304a.243.243 0 0 1-.22-.128 75.867 75.867 0 0 1-2.411-2.842c-.175-.212-.351-.382-.526-.594-.044-.042-.088-.042-.132-.085 0 .043-.043.085-.043.17v3.31c0 .112-.073.169-.22.169h-4.427c-.176 0-.264-.085-.264-.255-.043-2.885-.043-5.77-.043-8.612V5.718c0-.17.043-.212.219-.212h4.428c.175 0 .219.042.219.212v8.273c0 .042.044.085.044.127l.131-.042c.132-.128.22-.255.351-.425.614-.72 1.228-1.442 1.798-2.163.087-.127.175-.17.35-.17h4.867c.043 0 .087 0 .087.043 0 0 0 .084-.044.084-.306.382-.613.722-.92 1.061-.921 1.06-1.798 2.164-2.718 3.224l-.658.764c-.088.085-.088.17 0 .255.658.763 1.315 1.484 1.973 2.248.789.933 1.622 1.867 2.411 2.8.395.424.789.89 1.14 1.315 0 .043.044.085.044.127-.044 0-.088.043-.132.043Zm12.188-6.83c-.438.084-.921.212-1.403.296-.395.085-.833.17-1.227.255-.395.085-.833.17-1.228.255-.395.084-.833.17-1.228.254-.438.085-.876.212-1.315.297l-1.183.255-.614.127c-.044 0-.088.042-.088.042 0 .043.044.085.088.128.219.17.394.297.614.466.394.297.789.297 1.227.255.614-.043 1.052-.34 1.403-.806.117-.142.263-.156.438-.043l1.491.934c.658.381 1.315.806 1.973 1.23.146.085.161.198.044.34-.439.424-.833.89-1.272 1.315a3.907 3.907 0 0 1-.833.636c-.35.212-.745.382-1.183.551a6.01 6.01 0 0 1-1.973.34.508.508 0 0 0-.351-.128 8.31 8.31 0 0 1-1.797-.212 6.432 6.432 0 0 1-1.754-.763 8.062 8.062 0 0 1-2.236-2.121 4.424 4.424 0 0 1-.701-1.443c-.395-1.145-.395-2.248-.176-3.394a6.7 6.7 0 0 1 .833-1.994c.439-.678.965-1.315 1.622-1.824a6.164 6.164 0 0 1 1.622-.933c1.009-.382 2.061-.467 3.113-.425.57.043 1.14.128 1.666.255.789.212 1.491.594 2.148 1.103a6.243 6.243 0 0 1 1.622 1.91c.22.38.439.805.614 1.23.175.424.263.933.263 1.4 0 .17-.044.212-.219.212Zm9.996-1.994c0 .141-.073.212-.22.212h-2.192a2.04 2.04 0 0 0-.701.127c-.351.127-.438.382-.482.721v7.594c0 .127-.044.17-.176.17h-4.471c-.176 0-.22-.043-.22-.17 0-1.782 0-3.521.044-5.303v-4.836c0-.297 0-.637.088-.934.175-.678.57-1.145 1.271-1.357.351-.127.702-.127 1.052-.127h5.787c.22 0 .22.042.22.212v3.69Z"/></g><defs><clipPath id="a"><path fill="#fff" d="M0 .5h142v28H0z"/></clipPath></defs></svg>