<svg xmlns="http://www.w3.org/2000/svg" width="171" height="33" fill="none"><clipPath id="a"><path d="M0 0h171v33H0z"/></clipPath><g fill="#c7beed" clip-path="url(#a)"><path d="M160.302 27.299c-1.705-.891-1.972-3.408-1.933-9.522l.039-9.376-3.236-.005.726-1.738h2.51V2.22L164.424 0v6.511l2.756.005-.726 1.924h-2.03l-.012 16.223c.133 1.307.572 2.075 1.2 2.636zM9.098 11.346c.61 1.672 1.994 3.398 1.01 5.334-.478 1.963-2.34 3.557-4.308 3.875-2.046.186-4.016-.159-5.533-1.405-1.091-5.682 1.225-10.937 5.72-14.068z"/><path d="M17.038 28.648c-1.026 3.437-11.196 1.18-14.39-4.458 4.19.465 8.91-3.238 8.99-7.456l5.397 11.914zM21.199 28.202c.466-.206 1.403-.67 1.634-1.665L11.89 2.854c-.731-.093-1.264-.16-2.193.502zM26.12 23.062c4.655-7.033.732-18.575-9.296-20.195zM113.224 7.385c1.099-.923 3.04-.945 4.296-.35.528.262 1.033.617 1.367 1.077l-2.427 3.758c-.307-.243-.527-.353-.925-.549-1.202-.516-2.468-.213-3.194.439v10.969c-.015 1.894.314 3.625 1.3 4.526h-5.508c-1.146-.88-1.433-2.287-1.543-3.518l-.045-14.585c.052-1.182-.252-1.703-.728-2.362l5.707.022c.461.33.483.904.726 1.342l.971-.771zM120.187 10.989c-.044-1.386.265-3.045-.643-4.242h5.292c.354.264.553.702.66 1.12.288.375.265.902.398 1.342l.044 15.54c.218.922.572 1.857 1.256 2.582l-5.662.012c-1.853-1.784-1.244-4.727-1.387-7.76l.044-8.594zM128.559 11.143c.571-1.581 2.355-2.375 3.653-3.231 1.985-.727 4.166-2.529 6.389-1.055 1.852 1.209 3.482 2.57 4.649 4.44.288.725.42 1.537.616 2.306 0 1.033.219 1.802.199 2.835a26.39 26.39 0 0 1 0 3.23c-.064 1.869-.947 3.538-2.424 4.835-2.203 1.956-4.978 4.179-7.974 2.661-2.687-1.253-5.862-3.735-5.66-7.143-.111-2.418-.224-4.506.11-6.859.13-.68.064-1.43.442-2.022m5.505 10.991c.263.967.773 2.155 1.939 2.287.682.022 1.19-.551 1.582-1.033 1.237-2.419 1.06-5.058 1.06-7.804-.397-2.044.089-4.835-2.115-6.09-.77-.287-1.366.242-1.85.724-.861 1.297-.959 2.78-1.013 4.43-.285 2.637.022 4.826.397 7.484M147.991 27.299c-1.708-.891-1.973-3.408-1.934-9.522l.04-9.376-3.239-.005.729-1.738h2.51V2.22L152.113 0l-.005 6.511 2.758.005-.727 1.924h-2.026l-.013 16.223c.133 1.307.572 2.075 1.2 2.636zM93 9.155c-.037-1.185-.253-1.704-.727-2.362l5.705.022c.463.33.483.903.728 1.341l.972-.77c1.099-.924 3.04-.946 4.296-.351.528.262 1.036.617 1.367 1.077l-2.424 3.758c-.309-.243-.53-.353-.925-.549-1.203-.516-2.469-.213-3.195.438v10.97c-.015 1.894.314 3.625 1.301 4.526h-5.511c-1.146-.88-1.47-2.189-1.54-3.518l-.048-14.585zM49.839 14.925l-2.083 4.255c-1.416 2.511-3.403 5.59-6.45 6.354-1.18.411-2.223.042-3.364-.039l-3.678 6.002a2.87 2.87 0 0 0 1.043.688C41.774 34.648 44.38 32 50.752 17.64l6.018 12.79h8.014l-3.786-8.631 2.144-4.463 5.918 12.898 7.67.05L63.307.856l-6.18 3.065L61.971 14.9 59.85 19.22 50.97.096l-6.512 3.31 5.384 11.517zM74.47 20.112c.152-2.132 1.323-4.132 3.303-5.21 1.963-1.208 4.254-1.693 6.278-2.746.354-.286.795-.636.815-1.099.022-.57-.263-1.01-.77-1.209-3.085-.658-5.639 1.275-7.886 3.187.287-1.407.508-2.945 1.168-4.264.328-.353.527-.837.969-1.1 2.181-1.076 4.912-1.382 7.358-1.208 2.005.132 3.855 1.559 4.539 3.385.35.857.329 1.824.398 2.702l.022 11.914c.022 1.033.505 2 1.12 2.835h-5.706c-.682-.614-1.018-1.385-1.212-2.352-1.595 1.407-4.93 3.495-6.917 2.11-2.058-.926-3.943-4.025-3.481-6.947m10.11-4.142c-.043-.825-.637-.913-1.057-.913-1.366.198-2.542 1.339-3.194 2.506-.584 1.043-.722 1.924-.773 2.835-.005.984-.064 1.714.331 2.46.218.485.704.705 1.168.835.88.174 1.695-.066 2.38-.529 1.607-.9 1.32-2.705 1.344-4.308l-.198-2.891zM169.008 26.986c-.913 0-1.652-.735-1.652-1.645s.739-1.635 1.652-1.635c.912 0 1.641.736 1.641 1.635s-.731 1.645-1.641 1.645zm0 .35c1.104 0 1.99-.889 1.99-1.995 0-1.107-.886-1.985-1.99-1.985s-2 .888-2 1.985c0 1.096.891 1.995 2 1.995zm-.116-1.863c.128.012.251 0 .339.095.105.113.105.297.132.497.018.137.052.287.079.419h.466c-.078-.21-.105-.455-.14-.676-.037-.252-.073-.396-.395-.46v-.012c.312-.061.476-.274.476-.546 0-.529-.444-.644-.876-.644h-.758v2.338h.368v-1.011h.307zm-.306-.365v-.6h.439c.289 0 .368.091.368.265s-.079.323-.422.333h-.388z"/></g></svg>