<svg xmlns="http://www.w3.org/2000/svg" width="105" height="45" fill="none"><clipPath id="a"><path d="M0 0h105v45H0z"/></clipPath><g fill="#c7beed" clip-path="url(#a)"><path d="M11.59 27.482c-.223.776-.424 1.531-.602 2.25a498.67 498.67 0 0 1-.614 2.465 23.686 23.686 0 0 0-.384 1.73c-.148.753-.642 1.229-1.43 1.384-.68.134-1.41.078-2.161-.167a5.057 5.057 0 0 1-2.006-1.246c-.618-.615-.933-1.388-.933-2.3 0-.74.187-1.91.569-3.58.371-1.627.91-3.556 1.599-5.736A143.716 143.716 0 0 1 8.09 15.2a98.579 98.579 0 0 1 2.728-6.536 2.234 2.234 0 0 1 1.774-1.286c1.756-.204 3.28-.154 4.571.15a1.27 1.27 0 0 1 .87 1.755c-.832 1.857-1.6 3.71-2.287 5.513a228.24 228.24 0 0 0-1.59 4.312.166.166 0 0 0 .227.206 16.27 16.27 0 0 0 1.977-1.085 14.479 14.479 0 0 0 2.867-2.412c.84-.919 1.531-1.957 2.05-3.084a8.575 8.575 0 0 0 .773-3.606c0-1.644-.455-2.857-1.354-3.607-.91-.758-2.191-1.142-3.808-1.142-1.722 0-3.297.409-4.681 1.213A13.984 13.984 0 0 0 8.56 8.61c-1.009 1.184-1.803 2.45-2.362 3.763-.553 1.302-.834 2.443-.834 3.391 0 .68-.36 1.172-1.012 1.383-.572.186-1.202.16-1.85-.082-.623-.232-1.2-.689-1.716-1.358C.266 15.033.004 14.122.004 13c0-.981.371-2.137 1.137-3.533.746-1.36 1.85-2.686 3.277-3.938 1.426-1.25 3.225-2.335 5.35-3.224 2.139-.894 4.61-1.347 7.345-1.347 1.558 0 3.12.183 4.642.541 1.536.364 2.926.915 4.134 1.641 1.224.735 2.229 1.658 2.986 2.743.77 1.103 1.162 2.398 1.162 3.848 0 1.562-.343 3.025-1.02 4.351a12.638 12.638 0 0 1-2.746 3.566c-1.139 1.044-2.49 1.965-4.013 2.737A26.336 26.336 0 0 1 18.278 22c-.088.027-.12.073-.115.165.03.69.08 1.372.148 2.03.078.754.182 1.49.31 2.187.124.686.274 1.354.444 1.985a20.219 20.219 0 0 0 .755 2.252c.216.534.456 1.043.711 1.517.25.465.52.905.805 1.31.276.395.573.766.884 1.105.3.329.62.633.949.902.32.264.656.5 1.002.707a7.201 7.201 0 0 0 3.267 1.017c.384.023.783.018 1.18-.018a9.033 9.033 0 0 0 1.232-.199c.42-.098.85-.23 1.277-.39.437-.166.88-.364 1.315-.593.167-.087.336-.178.502-.275a1.224 1.224 0 0 1 1.606.346c.367.51.285 1.215-.19 1.629a26.323 26.323 0 0 1-2.366 1.855c-.522.36-1.051.696-1.574.994a16.62 16.62 0 0 1-2.432 1.153c-.534.2-1.07.366-1.594.492-.522.126-1.048.217-1.563.27a10.834 10.834 0 0 1-1.524.047 9.818 9.818 0 0 1-2.181-.343 9.455 9.455 0 0 1-2-.816c-.416-.227-.824-.49-1.212-.782-.312-.236-.62-.494-.911-.77a12.21 12.21 0 0 1-1.018-1.087 13.6 13.6 0 0 1-.909-1.24 15.725 15.725 0 0 1-.802-1.38c-.248-.48-.482-.99-.696-1.517-.211-.52-.409-1.072-.587-1.643a24.582 24.582 0 0 1-.479-1.767 27.454 27.454 0 0 1-.365-1.884 30.877 30.877 0 0 1-.229-1.747c-.019-.181-.275-.203-.324-.028M105 4.643a4.648 4.648 0 0 1-4.65 4.643c-2.568 0-4.65-2.078-4.65-4.643S97.781 0 100.35 0A4.647 4.647 0 0 1 105 4.643z"/><path d="M103.962 23.368c-.227-.351-.663-.578-1.112-.578s-.808.2-1.049.547c-.276.399-.616.872-1.011 1.407a18.902 18.902 0 0 1-1.392 1.67c-.486.52-.96.973-1.408 1.344-.464.385-.765.465-.934.465-.12 0-.341 0-.39-.584-.053-.612.038-1.408.269-2.365.236-.983.58-2.076 1.018-3.246a109.907 109.907 0 0 1 2.53-6.16c.348-.774.565-1.277.649-1.496.278-.637.176-1.265-.294-1.816-.431-.506-1.01-.86-1.717-1.053-.691-.189-1.445-.2-2.23-.032-.84.18-1.506.665-1.98 1.442-.418.683-.961 1.754-1.615 3.186a54.293 54.293 0 0 0-1.884 4.734 56.687 56.687 0 0 0-.995 3.147 8.955 8.955 0 0 1-2.952 4.488c-.508.415-1.044.806-1.6 1.17-.246.16-.494.31-.742.446-.079.044-.16-.052-.107-.123.429-.565.851-1.174 1.263-1.826.85-1.342 1.623-2.95 2.299-4.777.715-1.935 1.164-3.7 1.334-5.246.17-1.565.112-2.93-.178-4.06-.3-1.165-.822-2.081-1.555-2.724-.759-.664-1.697-1-2.788-1-1.286 0-2.468.34-3.513 1.008-.713.458-1.375.97-1.974 1.527-.05.046-.09.041-.127-.016a2.527 2.527 0 0 0-.538-.598 4.007 4.007 0 0 0-1.815-.833 4.19 4.19 0 0 0-2.103.143c-.741.243-1.295.744-1.644 1.493a83.328 83.328 0 0 0-2.104 5.002 142.77 142.77 0 0 0-2.1 5.823l-.222.662a8.948 8.948 0 0 1-3.047 4.275c-.374.287-.762.561-1.16.822-.247.161-.494.31-.744.447-.078.043-.16-.05-.106-.123.43-.564.852-1.174 1.264-1.826.849-1.34 1.622-2.948 2.3-4.777.715-1.935 1.164-3.7 1.334-5.246.172-1.566.112-2.932-.178-4.06-.298-1.164-.822-2.081-1.555-2.725-.76-.664-1.697-1-2.788-1-1.287 0-2.47.34-3.514 1.01-.715.457-1.376.969-1.974 1.526-.05.046-.091.041-.127-.016a2.547 2.547 0 0 0-.539-.597 4.001 4.001 0 0 0-1.814-.833 4.182 4.182 0 0 0-2.102.143c-.742.242-1.294.744-1.646 1.494a83.935 83.935 0 0 0-2.103 5.002 140.867 140.867 0 0 0-1.97 5.439 8.616 8.616 0 0 1-2.24 3.545c-.274.266-.54.505-.798.719-.463.385-.763.465-.933.465-.12 0-.341 0-.39-.584-.053-.611.038-1.406.269-2.365.236-.983.578-2.076 1.018-3.247.443-1.178.892-2.316 1.334-3.38.448-1.072.85-2.009 1.195-2.78.355-.788.566-1.278.648-1.497.28-.636.178-1.265-.293-1.816-.433-.506-1.022-.861-1.75-1.054a4.719 4.719 0 0 0-2.228-.03c-.82.18-1.477.665-1.95 1.44-.095.153-.195.322-.3.51a.083.083 0 0 1-.153-.024 4.51 4.51 0 0 0-.434-1.196 3.502 3.502 0 0 0-1.31-1.351c-.58-.348-1.316-.524-2.188-.524-2.057 0-4.143.947-6.2 2.816-2.02 1.836-3.693 4.764-4.976 8.705-.602 1.9-.955 3.657-1.05 5.222-.095 1.582.033 2.95.38 4.06.36 1.146.93 2.05 1.7 2.688.793.66 1.747.993 2.835.993.804 0 1.571-.139 2.28-.412a8.556 8.556 0 0 0 1.894-1.013 8.578 8.578 0 0 0 1.217-1.055.498.498 0 0 1 .838.2c.122.412.291.778.509 1.096.537.786 1.387 1.184 2.526 1.184 1.262 0 2.538-.473 3.792-1.405a21.053 21.053 0 0 0 1.707-1.417c.124-.114.32.008.27.17a162.512 162.512 0 0 0-.873 2.997c-.44 1.567-.799 2.916-1.065 4.011-.355 1.469-.401 1.867-.401 2.052 0 .9.28 1.668.833 2.282.533.59 1.152 1.014 1.841 1.259.453.16.895.242 1.313.242.232 0 .46-.025.68-.075.493-.111 1.118-.44 1.301-1.371l.003-.019c.072-.49.211-1.154.411-1.975.208-.852.461-1.82.752-2.88.288-1.054.616-2.228 1.003-3.59.179-.63.37-1.289.575-1.974a.167.167 0 0 1 .304-.036c.09.156.191.309.303.458.628.84 1.63 1.267 2.98 1.27.27.012.541.019.808.019 1.983 0 3.844-.34 5.534-1.01a22.314 22.314 0 0 0 4.412-2.325c.13-.09.298.035.252.185-.378 1.244-.72 2.408-1.02 3.479-.442 1.577-.8 2.927-1.064 4.01-.355 1.472-.401 1.87-.401 2.053 0 .9.28 1.667.833 2.281.533.591 1.152 1.015 1.841 1.259.453.16.894.242 1.313.242.231 0 .46-.025.68-.074.494-.112 1.12-.44 1.302-1.372l.004-.019c.072-.491.211-1.157.412-1.975.207-.85.46-1.82.75-2.88.29-1.059.617-2.233 1.004-3.59.18-.63.372-1.29.575-1.974a.167.167 0 0 1 .303-.036c.09.157.191.31.303.46.628.84 1.63 1.267 2.978 1.27.271.012.542.018.809.018 1.982 0 3.844-.34 5.535-1.01 1.891-.748 3.601-1.691 5.082-2.802.251-.19.498-.38.736-.574a.166.166 0 0 1 .27.132l-.001.188c0 1.182.249 2.146.74 2.864.537.786 1.387 1.185 2.526 1.185 1.261 0 2.544-.472 3.816-1.403a21.533 21.533 0 0 0 3.394-3.107 33.266 33.266 0 0 0 2.687-3.44 133.89 133.89 0 0 0 1.569-2.37c.234-.369.241-.777.019-1.122m-64.344-6.045c-.09.828-.266 1.774-.521 2.814a26.402 26.402 0 0 1-1.044 3.244 36.192 36.192 0 0 1-1.38 3.106c-.47.929-.946 1.72-1.414 2.354-.457.616-.886 1.075-1.275 1.365-.288.215-.448.239-.503.239a.172.172 0 0 1-.07-.015c-.054-.024-.233-.144-.327-.711-.088-.518-.096-1.187-.025-1.988.072-.814.239-1.75.492-2.78a25.925 25.925 0 0 1 1.045-3.243 36.105 36.105 0 0 1 1.38-3.107c.469-.928.945-1.729 1.416-2.382.454-.629.882-1.096 1.272-1.386.289-.215.45-.239.504-.239.026 0 .047.005.067.014.055.025.244.152.36.725.103.509.11 1.18.022 1.993m22.527.05a25.844 25.844 0 0 1-.686 2.795 31.81 31.81 0 0 1-1.182 3.241 41.817 41.817 0 0 1-1.574 3.111c-.528.934-1.052 1.737-1.558 2.387-.491.634-.947 1.102-1.356 1.393-.308.22-.477.244-.535.244a.162.162 0 0 1-.073-.015c-.051-.023-.223-.14-.298-.7-.07-.507-.032-1.179.11-1.993.145-.834.377-1.784.687-2.82a31.314 31.314 0 0 1 1.185-3.252c.475-1.118.993-2.16 1.539-3.094.55-.94 1.081-1.734 1.584-2.363.492-.617.95-1.079 1.36-1.372.308-.22.479-.243.537-.243.027 0 .051.005.07.014.052.022.224.141.3.699.068.509.032 1.171-.11 1.966m20.82 0a25.694 25.694 0 0 1-.688 2.796 31.863 31.863 0 0 1-1.181 3.24 41.368 41.368 0 0 1-1.575 3.112c-.528.934-1.051 1.737-1.557 2.387-.493.633-.949 1.103-1.357 1.393-.307.22-.477.243-.536.243a.161.161 0 0 1-.073-.015c-.051-.022-.223-.14-.297-.697-.07-.51-.032-1.18.11-1.994.145-.838.376-1.786.686-2.82a31.225 31.225 0 0 1 1.185-3.252 27.205 27.205 0 0 1 1.539-3.094c.547-.938 1.08-1.732 1.584-2.363.49-.616.948-1.076 1.36-1.372.308-.22.478-.243.536-.243a.18.18 0 0 1 .071.014c.051.022.223.141.299.699.068.511.032 1.173-.109 1.966"/></g></svg>