<svg xmlns="http://www.w3.org/2000/svg" width="122" height="23" fill="none"><clipPath id="a"><path d="M0 0h122v23H0z"/></clipPath><g clip-path="url(#a)"><path fill="#c7beed" d="M55.342 8.155v13.888h-3.26V.312l14.584 14.504V.853h3.261v21.81L55.342 8.156zM89.123 0c-6.38 0-11.568 5.15-11.568 11.487 0 6.336 5.188 11.483 11.568 11.483s11.569-5.15 11.569-11.483S95.502 0 89.123 0zm0 19.708c-4.521 0-8.203-3.689-8.203-8.221s3.682-8.222 8.203-8.222c4.522 0 8.202 3.689 8.202 8.222 0 4.533-3.678 8.221-8.202 8.221zM32.875 0c-6.38 0-11.568 5.15-11.568 11.487 0 6.336 5.189 11.483 11.568 11.483s11.569-5.15 11.569-11.483C44.444 5.15 39.256 0 32.875 0zm0 19.708c-4.524 0-8.201-3.689-8.201-8.221s3.677-8.222 8.201-8.222 8.204 3.689 8.204 8.222c0 4.532-3.681 8.221-8.204 8.221zM7.116 13.1l-.013-.005c-2.178-.687-3.636-1.364-4.735-2.197C.798 9.71 0 8.195 0 6.395c0-1.687.79-3.33 2.166-4.517C3.572.666 5.509 0 7.619 0c4.416 0 6.94 2.922 7.046 3.047l-2.68 1.797c-.62-.46-2.25-1.494-4.366-1.494-2.657 0-4.245 1.548-4.245 3.045 0 1.043.577 2.191 4.749 3.51l.016.002c2.172.685 3.636 1.364 4.733 2.195 1.572 1.19 2.368 2.705 2.368 4.506 0 1.686-.79 3.331-2.168 4.517C11.669 22.335 9.732 23 7.62 23 3.205 23 .68 20.08.575 19.955l2.682-1.798c.62.461 2.251 1.494 4.363 1.494 2.658 0 4.247-1.544 4.247-3.044 0-1.043-.575-2.191-4.751-3.507zm106.76 0-.014-.005c-2.177-.687-3.636-1.364-4.733-2.197-1.569-1.188-2.37-2.703-2.37-4.503 0-1.687.792-3.33 2.168-4.517C110.329.666 112.264 0 114.379 0c4.417 0 6.942 2.922 7.049 3.047l-2.683 1.798c-.619-.46-2.25-1.494-4.366-1.494-2.658 0-4.247 1.547-4.247 3.044 0 1.044.578 2.192 4.753 3.51l.016.002c2.175.685 3.633 1.364 4.732 2.195 1.568 1.19 2.367 2.705 2.367 4.506 0 1.686-.79 3.332-2.165 4.517-1.405 1.21-3.342 1.875-5.456 1.875-4.415 0-6.937-2.919-7.043-3.045l2.68-1.798c.622.462 2.248 1.495 4.363 1.495 2.661 0 4.246-1.544 4.246-3.044-.001-1.044-.575-2.192-4.75-3.508z"/></g></svg>