<svg xmlns="http://www.w3.org/2000/svg" width="164" height="24" fill="none"><clipPath id="a"><path d="M0 0h164v24H0z"/></clipPath><g clip-path="url(#a)"><path fill="#c2b8ed" d="M152.558 2.939h-3.398v15.603h3.398V7.347a4.974 4.974 0 0 1 4.126-2.17c2.323 0 3.918 1.435 3.918 3.78v9.55H164V8.292c0-3.324-2.392-5.668-6.033-5.668a6.425 6.425 0 0 0-5.34 2.589zm-13.487 2.099c2.392 0 4.022 1.4 4.542 3.988h-9.015c.485-2.519 2.184-3.988 4.473-3.988zm.069 13.784c3.745 0 6.484-1.994 7.489-5.318h-3.328c-.624 1.75-2.289 2.94-4.161 2.87-2.67 0-4.507-1.89-4.681-5.074h12.586v-.664c0-5.143-3.467-8.012-7.94-8.012-4.472 0-8.078 3.114-8.078 8.117.034 4.933 3.398 8.081 8.113 8.081zM121.076 5.038c2.392 0 4.022 1.4 4.542 3.988h-8.98c.416-2.519 2.115-3.988 4.438-3.988zm.034 13.784c3.745 0 6.484-1.994 7.49-5.318h-3.329c-.624 1.75-2.288 2.94-4.161 2.87-2.669 0-4.507-1.89-4.68-5.074h12.586v-.664c0-5.143-3.468-8.012-7.94-8.012-4.473 0-8.079 3.114-8.079 8.117.035 4.933 3.398 8.081 8.113 8.081zM107.241 2.94h-3.397v15.603h3.397V7.872c1.006-1.75 3.121-2.45 5.271-2.1V2.66a5.353 5.353 0 0 0-5.271 2.904zm-13.973 10.74c-2.565 0-4.438-1.504-4.438-4.233 0-2.729 1.873-4.338 4.438-4.338s4.439 1.54 4.439 4.338c0 2.799-1.907 4.233-4.438 4.233zm-4.16 4.828h-3.225C86.681 22.251 89.836 24 94.066 24s7.073-1.96 7.073-4.933c0-2.344-1.664-3.428-4.265-4.128C99.51 14.204 101 12.105 101 9.376a6.21 6.21 0 0 0-1.387-3.918 5.61 5.61 0 0 1 2.289-.07V2.519c-1.456-.105-2.878.455-3.814 1.574a8.86 8.86 0 0 0-4.854-1.434c-4.473 0-7.697 2.764-7.697 6.717 0 5.178 4.299 6.367 8.425 7.312 3.224.735 3.953 1.504 3.953 2.589 0 1.225-.937 2.274-3.884 2.274-2.53.035-4.3-.875-4.923-3.044zm-9.396-4.373V5.458H84.6V2.904h-4.854V0h-3.363v2.939h-3.918v2.554h3.918v9.27c0 2.59 1.387 3.92 4.82 3.92 1.144 0 2.288-.176 3.432-.456v-2.484c-.867.245-1.768.35-2.635.385-2.011-.07-2.288-.77-2.288-1.994zM64.109 5.038c2.393 0 4.022 1.4 4.542 3.988h-8.98c.45-2.519 2.15-3.988 4.438-3.988zm.07 13.784c3.744 0 6.483-1.994 7.489-5.318h-3.329c-.624 1.75-2.288 2.94-4.16 2.87-2.67 0-4.508-1.89-4.681-5.074h12.586v-.664c0-5.143-3.467-8.012-7.94-8.012-4.473 0-8.079 3.114-8.079 8.117.035 4.933 3.398 8.081 8.113 8.081zm-18.1-13.784c2.393 0 4.023 1.4 4.543 3.988h-8.98c.45-2.519 2.15-3.988 4.438-3.988zm.07 13.784c3.744 0 6.484-1.994 7.49-5.318h-3.33c-.624 1.75-2.288 2.94-4.16 2.87-2.67 0-4.508-1.89-4.68-5.074h12.585v-.664c0-5.143-3.467-8.012-7.94-8.012-4.473 0-8.078 3.114-8.078 8.117.069 4.933 3.397 8.081 8.113 8.081zm-16.365-.35h3.432L37.55 2.904h-3.12l-2.947 11.545-3.364-11.545h-2.982l-3.293 11.37-2.913-11.37h-3.294l4.369 15.603h3.433l3.19-11.265zm-21.844.35c4.091 0 6.97-2.029 6.97-4.898 0-6.157-11.443-3.463-11.443-6.997 0-1.154 1.18-1.96 3.467-1.96 2.462 0 4.022.98 4.647 3.115h3.155c-.694-3.534-3.537-5.458-7.767-5.458S.243 4.514.243 7.312c0 5.983 11.442 3.219 11.442 6.997 0 1.19-1.145 2.134-3.71 2.134-2.566 0-4.196-1.12-4.75-3.463H0c.693 3.918 3.675 5.842 7.94 5.842z"/></g></svg>