<svg xmlns="http://www.w3.org/2000/svg" width="179" height="31" fill="none"><clipPath id="a"><path d="M0 0h179v31H0z"/></clipPath><g fill="#c2b8ed" fill-rule="evenodd" clip-path="url(#a)" clip-rule="evenodd"><path d="M125.179 10.488c.98-2.073.735-4.883-.245-6.956-1.212-2.073-3.894-1.336-5.719-1.459-.49 0-.857.368-1.103.86v23.17c.491 1.105 1.702.737 2.56.86.082.327.245.814.49 1.46h-11.818c.368-1.092.368-.86.613-1.337.858-.246 2.315.245 2.437-1.337V2.81c-.122-1.104-1.334-.981-2.192-1.104-.163-.41-.368-.978-.613-1.705h13.153c4.751 0 5.473.736 6.453 1.46 1.103 1.104 2.07 2.686 2.07 4.636.122 1.337 0 2.687-.49 3.9 1.334-.245 1.824-.613 2.804-.736 0 .982.123 2.319.123 3.41 1.579-2.073 3.771-3.655 6.331-3.287-.245 1.95-.49 4.146-.735 6.22h-1.334c-.246-1.46-.613-1.951-1.702-2.442-1.09-.245-2.192.491-2.56 1.46v11.47c.245.981 1.334.858 2.069 1.104.246.368.246.245.613 1.214h-10.47c.245-.491.449-.855.613-1.091.735-.369 1.947-.369 2.069-1.46V13.42c-1.702.982-3.281 1.582-5.596 1.705-.98 0-1.824-.123-2.927-.368-.368-.491-.49-.737-.858-1.46 2.437.123 4.997-.49 5.964-2.81zM147.344 21.958c-.98-3.655-.367-7.57 2.315-10.365 3.172-3.055 8.891-3.533 12.785-1.95-.368 2.072-.613 3.9-.98 5.973h-1.457c-.368-1.95-.368-4.146-2.683-5.128-1.824-.491-3.172.86-3.893 2.196-2.07 3.41-1.457 8.537 1.456 11.592 1.212 1.337 2.928 1.95 4.875 1.582 1.102-.122 2.192-.49 3.049-1.09.123.49.245.859.368 1.581-2.437 2.442-5.963 2.687-9.258 2.196-3.173-.614-5.964-3.778-6.577-6.587z"/><path d="M145.888 26.227c.245.736 1.456.613 2.192.859.245.49.367.49.612 1.336h-10.225c.49-.613.49-.736.736-1.213.735-.246 1.701-.369 1.824-1.337V9.997c1.579-.368 3.281-.491 4.874-.86v17.076zM73.55 28.545c0-.123-.245-.245-.613-1.705l-4.016-14.88c-.368-.981-1.58-.613-2.193-.858-.122-.491-.245-.491-.49-1.214h10.348c-.123.614-.245.736-.245 1.09-.49.124-.735.246-1.212.492-.858.49-.368 1.582-.122 2.687.49 1.827.735 3.777 1.456 5.605 1.335-2.932 2.07-6.465 3.05-9.642v-.123h3.65c1.088 3.178 2.191 6.833 3.28 10.12l.368-1.337c.49-2.318 1.212-4.882 1.334-7.201-.367-.491-.98-.491-1.457-.736 0-.369-.367-.491-.49-1.105h7.434c-.122.736-.245.736-.367 1.105-.858.49-2.437 0-2.56 1.704l-4.14 15.985h-3.049c-1.334-3.656-1.947-7.679-3.526-11.102-1.58 3.532-2.315 7.324-3.404 11.102h-3.05zM143.451 7.924c1.579 0 2.682-1.214 2.682-2.687 0-1.473-1.089-2.564-2.682-2.564-1.457 0-2.56 1.105-2.56 2.564 0 1.46 1.103 2.687 2.56 2.687zM22.41 29.39c1.458 0 2.683-1.213 2.683-2.686a2.699 2.699 0 0 0-2.682-2.687 2.699 2.699 0 0 0-2.683 2.687 2.699 2.699 0 0 0 2.683 2.687z"/><path d="M50.295 19.27c0-5.604 2.927-9.996 9.258-9.996s9.259 4.392 9.259 9.997c0 5.605-3.173 9.874-9.259 9.874s-9.258-4.391-9.258-9.874zm12.172 6.343c.98-3.287 1.09-9.152.122-12.316-.367-1.105-1.456-2.441-3.28-2.196-3.405.491-3.282 4.27-3.65 7.079 0 3.178.368 6.464 1.09 7.8 1.579 2.688 4.996 1.828 5.718-.367zM99.977 25.367c1.947.737 4.384.368 6.086-.368 0 .368.245.86.245 1.337-2.437 2.073-5.718 2.686-9.013 1.95-2.928-.737-5.596-3.778-6.209-6.71-.735-4.269.123-8.66 3.772-11.347 2.192-1.46 5.119-1.828 7.788-1.214 1.579.614 3.281 1.582 4.261 3.287.735 1.336 1.089 3.055 1.089 4.76l-1.702 1.336-10.225-.368c0 1.46 0 2.196.245 3.178.49 1.827 1.947 3.532 3.65 4.146zm-3.649-9.028h6.576c.368-1.828-.122-3.778-1.103-4.883-.857-.982-2.314-1.214-3.28-.736-1.948 1.104-2.07 3.532-2.193 5.605z"/><path d="M42.738 3.9c1.09 1.828 1.335 5.251.245 7.324-1.211 2.319-4.016 2.196-6.33 2.196l.245 1.582c.98 0 1.102.614 1.456.982 2.928 4.76 4.507 9.52 8.524 13.666 1.946 1.582 4.996 1.582 7.556.982 0-.368 0-.737-.123-1.105-.98-.368-2.07-.86-2.682-1.95l-7.91-13.42c1.702-.246 3.404-1.337 4.629-3.055.98-1.337 1.334-3.533.98-5.483-.367-2.564-2.192-5.005-7.066-5.005H27.04c.123.49.245.736.49 1.46.98 0 2.437 0 2.56.858v23.172c-.245 1.582-1.334 1.105-2.437 1.336l-.49 1.337h11.573c-.327-.655-.572-1.141-.736-1.46-.857-.122-2.07.123-2.314-.981l-.123-23.172c.123-.368.123-.49.49-.614 2.56 0 5.596-.368 6.7 1.337zM170.967 25.367c1.947.737 4.384.368 6.209-.368 0 .368.122.86.122 1.337-2.437 2.073-5.718 2.686-9.013 1.95-2.927-.737-5.473-3.778-6.209-6.71-.612-4.269.245-8.66 3.772-11.347 2.314-1.46 5.119-1.828 7.788-1.214 1.579.614 3.404 1.582 4.261 3.287.736 1.336 1.09 3.055 1.09 4.76l-1.702 1.336-10.225-.368c0 1.46 0 2.196.367 3.178.49 1.827 1.825 3.532 3.526 4.146zm-3.526-9.028h6.576c.245-1.828-.123-3.778-1.212-4.883-.858-.982-2.314-1.214-3.172-.736-1.947 1.104-2.192 3.532-2.192 5.605zM14.854 3.287V26.58c.368.982 1.58.737 2.315.86.368.49.245.245.735 1.336H6.331c.163-.491.327-.86.49-1.105.735-.245 2.07 0 2.315-1.091V3.287H4.752c-2.56.245-3.05 3.177-3.65 4.882H0C.368 5.728.735 3.178 1.103.736h22.41c.123 2.442.246 5.006.246 7.324h-1.457c-.49-1.827-.368-4.514-2.315-4.76h-5.12z"/></g></svg>