<svg xmlns="http://www.w3.org/2000/svg" width="109" height="28" fill="none"><g fill="#C2B8ED" clip-path="url(#a)"><path d="M98.438 13.663h-5.636L103.106.5h5.637L98.438 13.663ZM9.032 5.2H.742V.5H22.07v4.7h-7.992v22H9.032v-22ZM22.07 7.27h4.897v2.97c.628-1.128 1.57-1.986 2.827-2.575 1.256-.59 2.801-.746 4.634-.47v5.227c-1.231-.427-2.425-.509-3.58-.245a4.957 4.957 0 0 0-2.807 1.693c-.715.862-1.073 1.921-1.074 3.177V27.2H22.07V7.27ZM45.627 27.5c-5.666.015-10.271-4.558-10.287-10.213v-.054a10.043 10.043 0 0 1 1.395-5.189 10.266 10.266 0 0 1 3.768-3.742 10.077 10.077 0 0 1 5.124-1.372 9.9 9.9 0 0 1 4.58 1.09 10.38 10.38 0 0 1 3.579 3.009 10.168 10.168 0 0 1 1.903 4.249 9.061 9.061 0 0 1 .036 3.76H40.203c.153.827.51 1.603 1.04 2.256a4.786 4.786 0 0 0 1.918 1.409 6.409 6.409 0 0 0 2.468.47 7.574 7.574 0 0 0 2.807-.544 6.496 6.496 0 0 0 2.318-1.523l4.294 1.166c-.804 1.581-2.098 2.847-3.881 3.798-1.783.952-3.63 1.428-5.538 1.43Zm5.313-12.18a5.299 5.299 0 0 0-.999-2.03 5.223 5.223 0 0 0-1.846-1.486 5.608 5.608 0 0 0-2.505-.546 5.753 5.753 0 0 0-2.525.546 5.192 5.192 0 0 0-1.865 1.485 5.296 5.296 0 0 0-.998 2.03H50.94ZM58.165.5h4.86v26.7h-4.86V.5ZM66.628.5h4.86v26.7h-4.86V.5ZM74.89 7.27h4.86V27.2h-4.86V7.27Z"/><path d="M103.477 27.195 87.871 7.27h-5.637l7.8 9.958-7.8 9.967h5.637l4.983-6.367 4.986 6.367h5.637Z"/></g><defs><clipPath id="a"><path fill="#fff" d="M.743.5h108v27h-108z"/></clipPath></defs></svg>